#!OML:ASF E:\emotionWalksFemale\Project 1\Capture day 1\Session 1\Female1.ASF
:FULLY-SPECIFIED
:DEGREES
1097
root 8.93204 15.4576 -20.345 179.214 0.067931 -181.68
lowerback 2.63954 -0.354004 -6.05326
upperback -7.20951 -0.488399 -0.774821
thorax -9.06083 0.364522 2.58221
lowerneck -14.0887 -3.12552 -3.47302
upperneck 26.5785 -2.68474 1.42047
head 10.9821 -0.874124 0.84429
rclavicle -1.39149e-015 6.36111e-015
rhumerus 34.0429 19.4285 -40.4063
rradius 29.8205
rwrist 11.621
rhand -0.572997 -46.775
rfingers 7.12502
rthumb 25.0414 -75.1534
lclavicle -1.39149e-015 6.36111e-015
lhumerus 28.5664 -15.8314 51.9132
lradius 28.6009
lwrist -25.4236
lhand 1.13025 -39.4003
lfingers 7.12502
lthumb 26.6725 -11.2596
rfemur -19.518 31.2421 10.473
rtibia 17.2817
rfoot -32.9105 -40.9495
rtoes 12.8027
lfemur 16.8164 -11.4231 -25.9954
ltibia 20.8193
lfoot -10.649 13.14
ltoes -28.1302
1098
root 8.98047 15.449 -20.4744 179.237 -0.284333 -181.932
lowerback 1.66652 0.218473 -5.81366
upperback -6.49591 -0.523626 -0.913855
thorax -7.73954 -0.107827 2.35907
lowerneck -14.6519 -1.7565 -3.98862
upperneck 25.8833 -3.30152 2.21922
head 10.8587 -2.12528 0.934133
rclavicle -4.67144e-015 2.46493e-014
rhumerus 34.6523 17.9812 -40.832
rradius 29.4692
rwrist 12.3977
rhand -0.799228 -46.4532
rfingers 7.12502
rthumb 24.8246 -74.8618
lclavicle -4.67144e-015 2.46493e-014
lhumerus 29.7072 -15.2707 51.7313
lradius 28.3744
lwrist -25.5205
lhand 1.18485 -39.3314
lfingers 7.12502
lthumb 26.7248 -11.1987
rfemur -19.1542 31.9495 10.38
rtibia 17.5271
rfoot -32.9594 -41.0925
rtoes 13.2823
lfemur 16.9039 -10.9702 -25.7243
ltibia 21.1513
lfoot -9.95353 12.2057
ltoes -27.2704
1099
root 9.02959 15.4437 -20.6049 179.291 -0.586372 -182.046
lowerback 2.50202 0.29324 -5.59616
upperback -7.15692 -0.554279 -0.869432
thorax -8.95468 -0.115291 2.29765
lowerneck -14.1898 -1.61391 -4.13193
upperneck 26.2876 -3.25883 2.46772
head 10.9227 -2.13681 1.05153
rclavicle -3.18055e-015 3.18055e-015
rhumerus 33.6468 18.1701 -41.5891
rradius 29.4579
rwrist 13.1699
rhand -0.662143 -46.6146
rfingers 7.12502
rthumb 24.956 -75.0049
lclavicle -3.18055e-015 3.18055e-015
lhumerus 28.7172 -15.6067 52.457
lradius 28.3418
lwrist -26.0526
lhand 1.16462 -39.3952
lfingers 7.12502
lthumb 26.7054 -11.2595
rfemur -18.9653 32.6801 10.4407
rtibia 18.0251
rfoot -33.5249 -41.1659
rtoes 15.321
lfemur 17.0442 -10.5611 -25.297
ltibia 21.3137
lfoot -9.22303 11.2255
ltoes -24.5833
1100
root 9.08075 15.4483 -20.7354 179.419 -0.921357 -182.28
lowerback 1.62313 0.255214 -5.43813
upperback -6.63694 -0.469298 -0.930381
thorax -7.86872 -0.104678 2.12804
lowerneck -14.5618 -1.66983 -3.98962
upperneck 25.723 -3.22734 2.48577
head 10.7828 -2.05134 1.04346
rclavicle -1.98785e-015 2.38542e-015
rhumerus 34.0164 17.4749 -41.475
rradius 29.37
rwrist 13.0244
rhand -0.75938 -47.3314
rfingers 7.12502
rthumb 24.8628 -75.7346
lclavicle -1.98785e-015 2.38542e-015
lhumerus 29.3846 -15.2019 52.4681
lradius 28.4119
lwrist -26.137
lhand 1.06381 -39.3498
lfingers 7.12502
lthumb 26.6089 -11.1995
rfemur -18.7443 31.9901 10.6349
rtibia 18.4905
rfoot -32.3119 -40.8059
rtoes 15.4986
lfemur 17.0355 -10.1405 -24.9593
ltibia 21.5599
lfoot -8.12228 10.3503
ltoes -23.1802
1101
root 9.12939 15.4619 -20.8625 179.476 -1.25846 -182.414
lowerback 1.77672 0.274644 -5.27127
upperback -6.73681 -0.447628 -0.876096
thorax -8.06745 -0.0973935 2.09143
lowerneck -14.4444 -1.62772 -3.75966
upperneck 25.5531 -3.12063 2.17603
head 10.6839 -2.00974 0.910778
rclavicle -3.72721e-015 1.43125e-014
rhumerus 33.7415 18.0123 -40.8941
rradius 29.4062
rwrist 12.0008
rhand -1.21934 -48.2621
rfingers 7.12502
rthumb 24.422 -76.7255
lclavicle -3.72721e-015 1.43125e-014
lhumerus 29.1753 -15.5103 52.6826
lradius 28.4906
lwrist -25.8397
lhand 0.845879 -39.2452
lfingers 7.12502
lthumb 26.4003 -11.0633
rfemur -18.3597 32.2032 10.8273
rtibia 18.7528
rfoot -31.9606 -41.0344
rtoes 16.3863
lfemur 16.8717 -9.59966 -24.4603
ltibia 22.1118
lfoot -6.89416 9.45817
ltoes -21.1737
